<svg id="Layer_1" data-name="Layer 1" xmlns="http://www.w3.org/2000/svg" viewBox="0 0 1925.08 1090.07"><defs><style>.cls-1{fill:#3c4858;}.cls-2{fill:#1b1a1f;stroke:#1b1a1f;stroke-width:5px;}.cls-2,.cls-3{stroke-miterlimit:10;}.cls-3{fill:#8492a6;stroke:#8492a6;stroke-width:3px;}</style></defs><rect class="cls-1" x="2.01" y="1.02" width="1920" height="1079"/><path class="cls-2" d="M1919.5,934q.49-65.75,1-131.5l-2-801-1239,1c147.66,47.1,304.89,125.05,341,259,55.1,204.43-202.83,357.49-158,571,31.55,150.26,224.25,233.54,379,244,194.43,13.14,254.62-232.93,415-225,115.32,5.7,204.67,123.64,264,228Q1920,1006.75,1919.5,934Z" transform="translate(2.01 1)"/><path class="cls-3" d="M-.5,685.5c89.77,164,180.27,217.78,255,230,116.1,19,213.77-59.16,261-15,34.91,32.64,18,109.44-7,179H.5Z" transform="translate(2.01 1)"/></svg>